<svg xmlns:xlink="http://www.w3.org/1999/xlink" xmlns="http://www.w3.org/2000/svg" viewBox="0 0 361 93.60000000000001" height="93.60000000000001" width="361" style="width: 361px; height: 93.6px; position: absolute; top: 50%; left: 50%; transform: translate(-50%, -50%) scale(0.347368); z-index: 0; cursor: pointer;"><defs id="SvgjsDefs1403"></defs><g id="SvgjsG1404" featurekey="symbolFeature-0" transform="matrix(1.3905188459511384,0,0,1.3905188459511384,-24.16026494840103,-21.117810095377347)" fill="#4863EE"><g xmlns="http://www.w3.org/2000/svg" display="none" fill="#4863EE"><rect display="inline" fill="#4863EE" width="100" height="100"></rect><rect x="-100" y="100" display="inline" fill="#4863EE" width="100" height="100"></rect><g display="inline" fill="#4863EE"><circle fill="#4863EE" cx="-50" cy="-50" r="50"></circle><circle fill="#4863EE" cx="50.333" cy="-50" r="50"></circle><circle fill="#4863EE" cx="150" cy="-50" r="50"></circle><circle fill="#4863EE" cx="-50" cy="50" r="50"></circle><circle fill="#4863EE" cx="50" cy="50" r="50"></circle></g><g display="inline" fill="#4863EE"><circle fill="#4863EE" cx="-50" cy="150" r="50"></circle><circle fill="#4863EE" cx="50.333" cy="150" r="50"></circle><circle fill="#4863EE" cx="150" cy="150" r="50"></circle></g><g display="inline" opacity="0.05" fill="#4863EE"><g fill="#4863EE"><g fill="#4863EE"><g fill="#4863EE"><line fill="none" stroke="#4863EE" stroke-width="0.5px" stroke-miterlimit="10" x1="100" y1="-100" x2="200" y2="0"></line><line fill="none" stroke="#4863EE" stroke-width="0.5px" stroke-miterlimit="10" x1="200" y1="-100" x2="100" y2="0"></line></g></g><g fill="#4863EE"><g fill="#4863EE"><line fill="none" stroke="#4863EE" stroke-width="0.5px" stroke-miterlimit="10" x1="0" y1="-100" x2="100" y2="0"></line><line fill="none" stroke="#4863EE" stroke-width="0.5px" stroke-miterlimit="10" x1="100" y1="-100" x2="0" y2="0"></line></g></g><g fill="#4863EE"><g fill="#4863EE"><line fill="none" stroke="#4863EE" stroke-width="0.5px" stroke-miterlimit="10" x1="-100" y1="-100" x2="0" y2="0"></line><line fill="none" stroke="#4863EE" stroke-width="0.5px" stroke-miterlimit="10" x1="0" y1="-100" x2="-100" y2="0"></line></g></g></g><g fill="#4863EE"><g fill="#4863EE"><g fill="#4863EE"><line fill="none" stroke="#4863EE" stroke-width="0.5px" stroke-miterlimit="10" x1="100" y1="0" x2="200" y2="100"></line><line fill="none" stroke="#4863EE" stroke-width="0.5px" stroke-miterlimit="10" x1="200" y1="0" x2="100" y2="100"></line></g></g><g fill="#4863EE"><g fill="#4863EE"><line fill="none" stroke="#4863EE" stroke-width="0.5px" stroke-miterlimit="10" x1="0" y1="0" x2="100" y2="100"></line><line fill="none" stroke="#4863EE" stroke-miterlimit="10" x1="49.5" y1="15" x2="49.5" y2="87"></line><line fill="none" stroke="#4863EE" stroke-miterlimit="10" x1="86" y1="50.5" x2="14" y2="50.5"></line><line fill="none" stroke="#4863EE" stroke-width="0.5px" stroke-miterlimit="10" x1="100" y1="0" x2="0" y2="100"></line><g fill="#4863EE"><path d="M85,15v71H14V15H85 M85.5,14.5H85H14h-0.5V15v71v0.5H14h71h0.5V86V15V14.5L85.5,14.5z" fill="#4863EE"></path></g></g></g><g fill="#4863EE"><g fill="#4863EE"><line fill="none" stroke="#4863EE" stroke-width="0.5px" stroke-miterlimit="10" x1="-100" y1="0" x2="0" y2="100"></line><line fill="none" stroke="#4863EE" stroke-width="0.5px" stroke-miterlimit="10" x1="0" y1="0" x2="-100" y2="100"></line></g></g></g><g fill="#4863EE"><g fill="#4863EE"><g fill="#4863EE"><line fill="none" stroke="#4863EE" stroke-width="0.5px" stroke-miterlimit="10" x1="100" y1="100" x2="200" y2="200"></line><line fill="none" stroke="#4863EE" stroke-width="0.5px" stroke-miterlimit="10" x1="200" y1="100" x2="100" y2="200"></line></g></g><g fill="#4863EE"><g fill="#4863EE"><line fill="none" stroke="#4863EE" stroke-width="0.5px" stroke-miterlimit="10" x1="0" y1="100" x2="100" y2="200"></line><line fill="none" stroke="#4863EE" stroke-width="0.5px" stroke-miterlimit="10" x1="100" y1="100" x2="0" y2="200"></line></g></g><g fill="#4863EE"><g fill="#4863EE"><line fill="none" stroke="#4863EE" stroke-width="0.5px" stroke-miterlimit="10" x1="-100" y1="100" x2="0" y2="200"></line><line fill="none" stroke="#4863EE" stroke-width="0.5px" stroke-miterlimit="10" x1="0" y1="100" x2="-100" y2="200"></line></g></g></g></g></g><g xmlns="http://www.w3.org/2000/svg" fill="#4863EE"><g fill="#4863EE"><path d="M57.712,70.215H42.03c-0.828,0-1.5-0.672-1.5-1.5v-1.113c0-2.39-1.513-4.818-3.113-7.389    c-2.127-3.414-4.536-7.282-4.536-12.396c0-9.296,7.563-16.859,16.858-16.859s16.859,7.563,16.859,16.859    c0,4.357-2.1,7.982-4.13,11.489c-1.676,2.896-3.257,5.629-3.257,8.296v1.113C59.212,69.543,58.54,70.215,57.712,70.215z     M43.521,67.215h12.697c0.126-3.315,1.841-6.278,3.651-9.409c1.834-3.167,3.729-6.438,3.729-9.989    c0-7.642-6.218-13.859-13.859-13.859s-13.858,6.218-13.858,13.859c0,4.257,2.075,7.588,4.082,10.81    C41.646,61.33,43.386,64.122,43.521,67.215z" fill="#4863EE"></path></g><g fill="#4863EE"><path d="M56.599,76.5H43.145c-0.828,0-1.5-0.672-1.5-1.5s0.672-1.5,1.5-1.5h13.454c0.828,0,1.5,0.672,1.5,1.5    S57.427,76.5,56.599,76.5z" fill="#4863EE"></path></g><g fill="#4863EE"><path d="M53.961,82.5h-8.179c-0.828,0-1.5-0.672-1.5-1.5s0.672-1.5,1.5-1.5h8.179c0.828,0,1.5,0.672,1.5,1.5    S54.789,82.5,53.961,82.5z" fill="#4863EE"></path></g><g fill="#4863EE"><path d="M49.739,25.706c-0.828,0-1.5-0.672-1.5-1.5v-7.519c0-0.828,0.672-1.5,1.5-1.5s1.5,0.672,1.5,1.5v7.519    C51.239,25.034,50.567,25.706,49.739,25.706z" fill="#4863EE"></path></g><g fill="#4863EE"><path d="M66.755,32.301c-0.384,0-0.768-0.146-1.061-0.439c-0.586-0.586-0.586-1.535,0-2.121l5.54-5.539    c0.586-0.586,1.535-0.586,2.121,0s0.586,1.535,0,2.121l-5.54,5.539C67.522,32.154,67.139,32.301,66.755,32.301z" fill="#4863EE"></path></g><g fill="#4863EE"><path d="M27.448,71.871c-0.372,0-0.745-0.138-1.036-0.415c-0.599-0.572-0.621-1.521-0.049-2.121l5.54-5.804    c0.573-0.598,1.521-0.621,2.121-0.049c0.599,0.572,0.621,1.521,0.049,2.121l-5.54,5.804    C28.238,71.716,27.844,71.871,27.448,71.871z" fill="#4863EE"></path></g><g fill="#4863EE"><path d="M81,49.316h-7.255c-0.828,0-1.5-0.672-1.5-1.5s0.672-1.5,1.5-1.5H81c0.828,0,1.5,0.672,1.5,1.5S81.828,49.316,81,49.316z" fill="#4863EE"></path></g><g fill="#4863EE"><path d="M25.998,49.316h-7.123c-0.828,0-1.5-0.672-1.5-1.5s0.672-1.5,1.5-1.5h7.123c0.828,0,1.5,0.672,1.5,1.5    S26.826,49.316,25.998,49.316z" fill="#4863EE"></path></g><g fill="#4863EE"><path d="M32.856,32.434c-0.384,0-0.768-0.146-1.061-0.439l-5.276-5.276c-0.586-0.586-0.586-1.535,0-2.121s1.535-0.586,2.121,0    l5.276,5.276c0.586,0.586,0.586,1.535,0,2.121C33.624,32.287,33.24,32.434,32.856,32.434z" fill="#4863EE"></path></g><g fill="#4863EE"><path d="M72.163,71.476c-0.384,0-0.768-0.146-1.061-0.439l-5.276-5.276c-0.586-0.586-0.586-1.535,0-2.121s1.535-0.586,2.121,0    l5.276,5.276c0.586,0.586,0.586,1.535,0,2.121C72.931,71.329,72.547,71.476,72.163,71.476z" fill="#4863EE"></path></g><g fill="#4863EE"><path d="M43.556,55.327c-0.384,0-0.768-0.146-1.061-0.439c-3.998-3.999-3.998-10.506,0-14.505c4.001-3.998,10.507-3.997,14.504,0    c0.586,0.586,0.586,1.535,0,2.121s-1.535,0.586-2.121,0c-2.828-2.828-7.432-2.828-10.262,0c-2.828,2.829-2.828,7.434,0,10.263    c0.586,0.586,0.586,1.536,0,2.121C44.323,55.181,43.939,55.327,43.556,55.327z" fill="#4863EE"></path></g></g></g><g id="SvgjsG1405" featurekey="nameFeature-0" transform="matrix(0.8095921649820752,0,0,0.8095921649820752,107.90080026071843,30.988009986794218)" fill="#4863EE"><path d="M3.8281 38.5937 l6.4844 0 l0 -19.922 l-6.4844 -9.1406 l0 29.063 z M29.766 1.4059999999999988 l0 25.703 l-18.359 -25.703 l-7.0313 0 l26.406 37.188 l5.3906 0 l0 -37.188 l-6.4063 0 z M64.281 16.875 l0 -15.547 l-6.5625 0 l0 37.344 l6.5625 0 l0 -21.797 z M89.2656 12.5 c0.9375 -2.2916 2.2916 -4.2447 4.0624 -5.8593 c1.6146 -1.6146 3.698 -2.9167 6.2501 -3.9063 s5.2344 -1.4844 8.0469 -1.4844 l8.6719 0 l0 5.9375 l-8.5938 0 c-2.0313 0 -3.8281 0.33852 -5.3906 1.0156 c-1.6666 0.67711 -3.0208 1.5625 -4.0624 2.6563 c-1.0938 1.0416 -1.9791 2.3958 -2.6563 4.0624 c-0.625 1.5104 -0.9375 3.2031 -0.9375 5.0781 s0.3125 3.5677 0.9375 5.0781 c0.625 1.5625 1.5104 2.9166 2.6563 4.0625 c1.0416 1.0416 2.3958 1.901 4.0624 2.5781 c1.6666 0.625 3.4635 0.9375 5.3906 0.9375 l8.5938 0 l0 5.9375 l-8.6719 0 c-2.9166 0 -5.5729 -0.46875 -7.9688 -1.4063 c-2.5 -1.0416 -4.6094 -2.3698 -6.3281 -3.9844 c-1.7709 -1.6666 -3.125 -3.6458 -4.0625 -5.9374 c-0.98961 -2.3959 -1.4844 -4.8438 -1.4844 -7.3438 c0 -2.6563 0.49477 -5.1302 1.4844 -7.4219 z  M162.98435 12.5 c0.9375 -2.2916 2.2916 -4.2447 4.0624 -5.8593 c1.6146 -1.6146 3.698 -2.9167 6.2501 -3.9063 s5.2344 -1.4844 8.0469 -1.4844 l8.6719 0 l0 5.9375 l-8.5938 0 c-2.0313 0 -3.8281 0.33852 -5.3906 1.0156 c-1.6666 0.67711 -3.0208 1.5625 -4.0624 2.6563 c-1.0938 1.0416 -1.9791 2.3958 -2.6563 4.0624 c-0.625 1.5104 -0.9375 3.2031 -0.9375 5.0781 s0.3125 3.5677 0.9375 5.0781 c0.625 1.5625 1.5104 2.9166 2.6563 4.0625 c1.0416 1.0416 2.3958 1.901 4.0624 2.5781 c1.6666 0.625 3.4635 0.9375 5.3906 0.9375 l8.5938 0 l0 5.9375 l-8.6719 0 c-2.9166 0 -5.5729 -0.46875 -7.9688 -1.4063 c-2.5 -1.0416 -4.6094 -2.3698 -6.3281 -3.9844 c-1.7709 -1.6666 -3.125 -3.6458 -4.0625 -5.9374 c-0.98961 -2.3959 -1.4844 -4.8438 -1.4844 -7.3438 c0 -2.6563 0.49477 -5.1302 1.4844 -7.4219 z M214.06275 32.6562 c-0.78125 -0.15625 -1.5105 -0.3907 -2.1876 -0.7032 c-1.4584 -0.67711 -2.7344 -1.6146 -3.8281 -2.8125 c-1.0416 -1.0938 -1.875 -2.4479 -2.5 -4.0625 c-0.57289 -1.6146 -0.85938 -3.2552 -0.85938 -4.9219 l0 -0.15625 l0 -0.23438 c0 -1.7188 0.28648 -3.3854 0.85938 -5 c0.67711 -1.6666 1.5105 -2.9948 2.5001 -3.9844 c1.0416 -1.1979 2.2916 -2.1094 3.75 -2.7344 c0.88539 -0.41664 1.6406 -0.67703 2.2656 -0.78117 l0 -5.8594 c-1.8229 0.26039 -3.4375 0.70313 -4.8438 1.3281 c-2.2916 0.98961 -4.2448 2.3177 -5.8594 3.9844 s-2.8906 3.6458 -3.8281 5.9374 s-1.4063 4.6875 -1.4063 7.1875 l0 0.15625 l0 0.23438 c0 2.5521 0.46875 4.948 1.4063 7.1876 c0.83336 2.2396 2.0834 4.1927 3.75 5.8594 c1.6666 1.7188 3.6198 3.0469 5.8594 3.9844 c1.4063 0.625 3.0469 1.0677 4.9219 1.3281 l0 -5.9375 z M235.31275 20 l0.000076294 -0.23438 c0 -2.5521 -0.46875 -4.948 -1.4063 -7.1876 c-0.9375 -2.2916 -2.2135 -4.2708 -3.8281 -5.9374 c-1.5625 -1.6666 -3.4896 -2.9688 -5.7813 -3.9063 c-1.3021 -0.625 -2.8906 -1.0677 -4.7656 -1.3281 l0 5.9375 l0.9375 0.3125 c0.46875 0.15625 0.83336 0.28648 1.0938 0.39063 c1.4584 0.67711 2.7344 1.6146 3.8281 2.8125 c1.0416 1.0938 1.875 2.4479 2.5 4.0625 c0.57289 1.6146 0.85938 3.2552 0.85938 4.9219 l0 0.15625 l0 0.23438 c0 1.7188 -0.28648 3.3854 -0.85938 5 c-0.67711 1.6666 -1.5105 2.9948 -2.5001 3.9844 c-1.0416 1.1979 -2.2916 2.1094 -3.75 2.7344 c-0.67711 0.3125 -1.3802 0.54688 -2.1094 0.70313 l0 5.9375 c1.5625 -0.20836 3.125 -0.65109 4.6875 -1.3282 c2.1354 -0.88539 4.0885 -2.2135 5.8594 -3.9844 c1.7188 -1.8229 2.9948 -3.802 3.8281 -5.9374 c0.9375 -2.2916 1.4063 -4.6875 1.4063 -7.1875 l0 -0.15625 z M270.53175 27.344 c-0.98961 2.3959 -2.3438 4.375 -4.0625 5.9375 c-1.7709 1.6666 -3.8542 2.9688 -6.2501 3.9063 s-5.0781 1.4063 -8.0469 1.4063 l-8.6719 0 l0 -5.9375 l8.5938 0 c1.9791 0 3.776 -0.3125 5.3906 -0.9375 c1.5625 -0.625 2.9166 -1.5104 4.0625 -2.6563 s2.0313 -2.5 2.6563 -4.0625 s0.9375 -3.2813 0.9375 -5.1563 c0 -1.8229 -0.3125 -3.5156 -0.9375 -5.0781 c-0.625 -1.6146 -1.5104 -2.9427 -2.6563 -3.9844 c-1.0416 -1.0938 -2.3958 -1.9791 -4.0624 -2.6563 c-1.6666 -0.625 -3.4635 -0.9375 -5.3906 -0.9375 l-8.5938 0 l0 -5.9375 l8.6719 0 c2.7604 0 5.4166 0.49477 7.9688 1.4844 c2.3959 0.88539 4.5052 2.2135 6.3281 3.9844 c1.7709 1.6146 3.125 3.5938 4.0625 5.9375 c0.98961 2.3959 1.4844 4.8438 1.4844 7.3438 c0 2.7084 -0.49477 5.1563 -1.4844 7.3438 z M284.81255 1.4059999999999988 l27.813 0 l0 5.9375 l-27.813 0 l0 -5.9375 z M284.81255 32.6562 l27.734 0 l0 5.9375 l-27.734 0 l0 -5.9375 z M284.81255 16.875 l25.078 0 l0 5.8594 l-25.078 0 l0 -5.8594 z" fill="#4863EE"></path></g></svg>