<svg width="1896" height="731" viewBox="0 0 1896 731" fill="none" xmlns="http://www.w3.org/2000/svg">
<g opacity="0.4">
<path d="M2989 460.531C2988.62 376.272 2956.33 291.347 2895.88 232.841C2835.43 174.319 2746.51 144.771 2664.23 161.768C2563.63 182.561 2488.86 264.007 2413.71 334.233C2268.83 469.619 2097.82 576.773 1912.98 647.997C1791.8 694.678 1659.8 726.207 1532.42 701.18C1375.69 670.377 1248.86 559.927 1120.05 465.234C980.928 362.949 829.097 274.229 662.609 228.909C496.137 183.574 313.245 184.36 156 255.493" stroke="#8FAABB" stroke-width="0.5"/>
<path d="M2989 449.177C2989.27 369.253 2957.53 288.832 2897.76 233.843C2846.54 186.699 2774.51 160.062 2703.38 164.474C2691.5 165.212 2679.65 166.823 2667.93 169.338C2567.75 190.885 2492.39 270.703 2416.6 339.139C2385.89 366.889 2354.03 393.345 2321.17 418.461C2197.77 512.749 2060.56 589.21 1914.13 641.805C1843.8 667.057 1769.63 686.631 1694.96 695.771C1637.71 702.787 1580.19 703.33 1523.57 693.783C1470.91 684.869 1421.47 667.839 1374.06 645.675C1277 600.413 1187.65 534.492 1098.31 471.387C958.711 372.732 808.484 284.255 643.42 238.556C478.416 192.887 297.61 191.592 142 258.552" stroke="#8FAABB" stroke-width="0.5"/>
<path d="M2985.98 436.444C2986.89 360.41 2955.71 284.058 2896.59 232.304C2845.94 187.904 2774.56 163.352 2703.8 168.733C2691.98 169.637 2680.19 171.37 2668.51 173.993C2568.71 196.404 2492.73 275.016 2416.28 342.038C2385.32 369.211 2353.22 395.043 2320.15 419.489C2195.98 511.303 2058.77 585.906 1911.9 635.204C1839.77 659.424 1763.47 677.118 1686.81 686.251C1628.06 693.244 1569.15 694.555 1511.2 686.266C1457.33 678.519 1406.65 663.056 1357.97 642.529C1258.22 600.661 1165.12 539.155 1072.89 476.202C932.861 380.605 784.097 291.971 620.4 245.657C456.809 199.403 277.998 196.012 124 259.191" stroke="#8FAABB" stroke-width="0.5"/>
<path d="M2984.94 425.676C2986.5 353.559 2955.93 281.305 2897.54 232.804C2847.56 191.165 2776.95 168.725 2706.7 175.059C2694.96 176.13 2683.24 178 2671.63 180.714C2572.38 203.999 2495.93 281.381 2418.96 346.953C2387.76 373.541 2355.49 398.742 2322.28 422.524C2197.53 511.835 2060.52 584.465 1913.53 630.538C1839.7 653.687 1761.43 669.507 1682.94 678.616C1622.79 685.599 1562.6 687.68 1503.41 680.652C1448.43 674.062 1396.59 660.172 1346.73 641.291C1244.44 602.834 1147.82 545.782 1052.83 483.015C912.705 390.402 765.589 301.725 603.53 254.808C441.622 207.996 265.162 202.522 113 261.866" stroke="#8FAABB" stroke-width="0.5"/>
<path d="M2987.89 414.876C2990.09 346.72 2960.06 278.579 2902.31 233.353C2852.86 194.493 2782.9 174.157 2712.98 181.474C2701.31 182.696 2689.64 184.702 2678.08 187.523C2579.17 211.645 2502.08 287.766 2424.41 351.879C2392.96 377.871 2360.42 402.431 2327.01 425.541C2201.44 512.298 2064.25 582.868 1916.91 625.771C1841.17 647.826 1760.84 661.78 1680.32 670.876C1618.65 677.846 1557.05 680.667 1496.51 674.904C1440.29 669.488 1387.2 657.194 1336.07 639.951C1231.04 604.923 1130.74 552.32 1032.74 489.775C892.271 400.122 746.419 311.51 585.674 264.021C425.124 216.653 250.615 209.065 100 264.58" stroke="#8FAABB" stroke-width="0.5"/>
<path d="M2982.81 403.491C2985.63 339.2 2956.19 275.075 2899.12 233.075C2850.26 196.924 2780.97 178.683 2711.46 186.98C2699.83 188.37 2688.23 190.501 2676.71 193.433C2578.24 218.445 2500.54 293.422 2422.25 356.157C2390.55 381.592 2357.79 405.547 2324.19 428.02C2197.87 512.367 2060.58 580.89 1913.02 620.759C1835.43 641.736 1753.07 653.872 1670.61 662.955C1607.46 669.907 1544.5 673.504 1482.63 669.015C1425.23 664.753 1370.92 654.023 1318.54 638.411C1210.84 606.749 1106.96 558.538 1005.98 496.12C865.387 409.219 720.814 320.611 561.482 272.46C402.407 224.476 229.975 214.773 81 266.505" stroke="#8FAABB" stroke-width="0.5"/>
<path d="M2985.72 395.476C2989.19 334.954 2960.31 274.795 2903.93 235.928C2855.68 202.475 2787.09 186.31 2717.99 195.59C2706.45 197.152 2694.9 199.427 2683.44 202.46C2585.42 228.422 2507.17 302.35 2428.26 363.812C2396.33 388.728 2363.34 412.111 2329.55 433.964C2202.56 516.035 2065.14 582.517 1917.49 619.488C1838.02 639.384 1753.7 649.726 1669.34 658.81C1604.72 665.786 1540.42 670.153 1477.26 666.908C1418.68 663.814 1363.18 654.64 1309.56 640.658C1199.24 612.33 1091.85 568.429 987.893 506.056C847.284 421.726 703.963 333.043 546.129 284.152C388.567 235.473 218.285 223.63 71 271.641" stroke="#8FAABB" stroke-width="0.5"/>
<path d="M2985.61 383.146C2989.71 326.82 2961.4 271.038 2905.63 235.622C2857.95 205.072 2789.99 191.096 2721.25 201.31C2709.76 203.017 2698.27 205.42 2686.84 208.532C2589.17 235.245 2510.27 307.631 2430.69 367.372C2398.47 391.592 2365.25 414.24 2331.24 435.332C2203.43 514.518 2065.71 578.444 1917.86 612.318C1836.4 630.977 1750.08 639.468 1663.7 648.504C1597.55 655.423 1531.86 660.53 1467.32 658.581C1407.53 656.677 1350.79 649.002 1295.87 636.839C1182.85 611.819 1071.84 572.747 964.749 510.907C824.043 429.651 681.783 341.596 525.242 292.326C369.048 243.282 200.728 229.382 55 273.349" stroke="#8FAABB" stroke-width="0.5"/>
<path d="M2979.48 372.247C2984.23 320.05 2956.41 268.666 2901.42 236.51C2854.26 208.935 2787.08 197 2718.77 208.151C2707.34 210.02 2695.9 212.536 2684.55 215.761C2587.32 243.246 2507.87 314.158 2427.67 372.247C2395.22 395.799 2361.79 417.739 2327.61 438.096C2199.1 514.494 2061.17 575.853 1913.29 606.773C1829.95 624.193 1741.71 630.898 1653.41 639.864C1585.81 646.75 1518.77 652.612 1452.95 651.949C1391.98 651.195 1334.04 645.123 1277.88 634.665C1162.24 613.117 1047.79 578.565 937.664 517.191C797.08 438.85 655.924 351.407 500.883 301.696C346.218 252.257 180.051 236.314 36 276.291" stroke="#8FAABB" stroke-width="0.5"/>
<path d="M2979.33 359.109C2984.72 310.843 2957.48 263.587 2903.17 234.681C2856.62 209.892 2790.16 200.061 2722.25 212.169C2710.9 214.205 2699.54 216.858 2688.22 220.176C2591.46 248.538 2511.44 318.201 2430.64 374.851C2397.95 397.816 2364.28 419.107 2329.94 438.799C2200.73 512.699 2062.58 571.626 1914.72 599.763C1829.45 615.987 1739.32 620.933 1649.09 629.889C1580.04 636.765 1511.68 643.385 1444.55 643.973C1382.41 644.395 1323.27 639.902 1265.88 631.096C1147.61 612.956 1029.78 582.784 916.57 521.701C776.139 445.931 636.085 358.853 482.512 308.551C329.377 258.551 165.345 240.487 23 276.63" stroke="#8FAABB" stroke-width="0.5"/>
<path d="M2979.16 347.584C2985.19 303.125 2958.51 259.861 2904.89 234.112C2858.93 212.042 2793.14 204.276 2725.64 217.416C2714.35 219.611 2703.03 222.411 2691.78 225.847C2595.44 255.154 2514.83 323.803 2433.4 379.191C2400.47 401.64 2366.58 422.363 2332.04 441.452C2202.11 513.068 2063.65 569.667 1915.76 595.159C1828.53 610.205 1736.51 613.445 1644.34 622.421C1573.81 629.294 1504.07 636.711 1435.64 638.573C1372.29 640.178 1311.95 637.241 1253.31 630.066C1132.37 615.292 1011.15 589.376 894.789 528.417C754.524 454.939 615.466 368.034 463.311 316.96C311.653 266.219 149.686 245.995 9 278.39" stroke="#8FAABB" stroke-width="0.5"/>
<path d="M2979.97 336.952C2986.65 296.385 2960.54 257.214 2907.56 234.701C2862.17 215.403 2797.04 209.745 2729.91 223.869C2718.7 226.251 2707.43 229.179 2696.22 232.698C2600.27 262.949 2519.05 330.459 2436.96 384.468C2403.78 406.359 2369.65 426.476 2334.9 444.908C2204.2 514.103 2065.37 568.217 1917.45 591.08C1828.21 604.885 1734.26 606.417 1640.1 615.383C1568.07 622.256 1496.95 630.448 1427.17 633.604C1362.63 636.38 1301.04 635.015 1241.15 629.523C1117.48 618.145 992.865 596.541 873.284 535.843C733.185 464.722 595.016 378.172 444.228 326.424C293.998 275.025 134.089 252.648 -5 281.245" stroke="#8FAABB" stroke-width="0.5"/>
<path d="M2977.77 325.755C2985.08 289.377 2959.55 254.568 2907.26 235.443C2862.47 219.05 2798.06 215.518 2731.34 230.537C2720.19 233.058 2709 236.107 2697.84 239.715C2602.35 270.644 2520.56 336.548 2437.87 388.79C2404.45 409.983 2370.1 429.35 2335.18 446.995C2203.8 513.276 2064.65 564.447 1916.84 584.599C1825.63 597.022 1729.83 596.871 1633.76 605.777C1560.27 612.599 1487.81 621.505 1416.74 625.913C1351.05 629.853 1288.27 630.079 1227.13 626.26C1100.85 618.381 972.933 601.188 850.184 541.201C710.405 472.898 573.158 387.417 423.87 335.355C275.17 283.686 117.382 259.323 -20 283.897" stroke="#8FAABB" stroke-width="0.5"/>
<path d="M2977.55 313.661C2985.49 281.213 2960.54 250.503 2908.9 234.611C2864.68 221.018 2800.93 219.582 2734.6 235.594C2723.5 238.286 2712.36 241.476 2701.25 245.196C2606.16 277.024 2523.74 341.74 2440.42 392.59C2406.73 413.199 2372.15 431.963 2337.02 448.959C2204.87 512.767 2065.31 561.303 1917.49 578.919C1824.27 590.047 1726.57 588.263 1628.52 597.154C1553.52 603.958 1479.69 613.65 1407.27 619.335C1340.35 624.446 1276.33 626.261 1213.95 624.114C1084.95 619.638 953.676 606.695 827.677 547.075C688.126 481.044 551.711 396.098 403.778 343.388C256.524 291.086 100.767 264.58 -35 285.325" stroke="#8FAABB" stroke-width="0.5"/>
<path d="M2978.31 306.458C2986.9 278.109 2962.52 251.703 2911.52 239.146C2867.89 228.397 2804.78 229.075 2738.84 245.982C2727.8 248.812 2716.72 252.124 2705.65 255.918C2610.95 288.452 2527.94 351.624 2443.94 400.765C2410 420.683 2375.16 438.719 2339.85 454.948C2206.92 515.937 2066.94 561.479 1919.15 576.535C1823.88 586.245 1724.29 582.873 1624.26 591.71C1547.76 598.47 1472.55 608.873 1398.8 615.799C1330.67 622.047 1265.4 625.449 1201.75 624.952C1070.05 623.928 935.432 615.257 806.138 556.391C666.893 492.978 531.266 409.12 384.722 356.066C238.871 303.463 85.179 274.978 -49 291.765" stroke="#8FAABB" stroke-width="0.5"/>
<path d="M2974.04 292.381C2983.28 267.898 2959.49 245.561 2909.21 236.236C2866.22 228.256 2803.85 231.037 2738.37 248.976C2727.41 251.999 2716.4 255.445 2705.39 259.344C2611.21 292.864 2527.69 354.978 2443.15 402.826C2409 422.216 2373.98 439.656 2338.5 455.283C2204.99 513.921 2064.75 556.796 1917.19 569.476C1820.01 577.833 1718.67 572.861 1616.79 581.702C1538.89 588.473 1462.4 599.687 1387.39 607.908C1318.16 615.344 1251.74 620.346 1186.92 621.51C1052.66 623.928 914.948 619.424 782.503 560.846C643.747 499.488 509.028 416.095 364.065 362.278C219.855 308.914 68.3843 278.235 -64 291.217" stroke="#8FAABB" stroke-width="0.5"/>
<path d="M2973.77 279.812C2983.64 259.247 2960.43 241.002 2910.8 234.935C2868.39 229.749 2806.69 234.662 2741.58 253.62C2730.68 256.82 2719.73 260.399 2708.76 264.434C2614.97 298.906 2530.84 359.95 2445.64 406.48C2411.23 425.331 2375.98 442.181 2340.3 457.18C2206.01 513.447 2065.34 553.561 1917.82 563.889C1818.58 570.835 1715.36 564.299 1611.5 573.156C1532.11 579.935 1454.23 591.932 1377.9 601.471C1307.43 610.116 1239.79 616.728 1173.7 619.564C1036.74 625.434 895.729 625.07 759.946 566.862C621.525 507.532 487.565 424.694 343.976 370.111C201.201 316.029 51.7806 283.133 -79 292.279" stroke="#8FAABB" stroke-width="0.5"/>
<path d="M2973.47 270.902C2983.98 254.303 2961.35 240.224 2912.33 237.445C2870.51 235.061 2809.43 242.108 2744.68 262.078C2733.86 265.434 2722.94 269.155 2712.02 273.286C2618.6 308.671 2533.82 368.507 2447.95 413.596C2413.27 431.866 2377.77 448.085 2341.88 462.406C2206.77 516.167 2065.61 553.375 1918.09 561.378C1816.77 566.876 1711.65 558.812 1605.77 567.65C1524.85 574.408 1445.57 587.196 1367.86 598.024C1296.18 607.85 1227.27 616.081 1159.89 620.576C1020.18 629.916 875.856 633.682 736.674 576.018C598.576 518.795 465.274 436.726 323.031 381.507C181.631 326.819 34.2012 291.768 -95 297.038" stroke="#8FAABB" stroke-width="0.5"/>
<path d="M2973.16 258.921C2984.31 246.358 2962.25 236.505 2913.9 237.019C2872.68 237.458 2812.27 246.6 2747.94 267.458C2737.17 270.969 2726.32 274.814 2715.44 279.037C2622.45 315.136 2537.1 373.486 2450.59 416.941C2415.65 434.544 2379.94 450.059 2343.86 463.651C2208.03 514.659 2066.47 548.73 1919.05 554.421C1815.7 558.402 1708.74 548.882 1600.92 557.66C1518.53 564.381 1437.88 577.882 1358.86 589.961C1286 600.919 1215.87 610.712 1147.24 616.857C1004.87 629.632 857.359 637.442 714.836 580.622C577.168 525.739 444.611 444.897 303.792 389.288C163.863 334.238 18.5361 297.2 -109 298.577" stroke="#8FAABB" stroke-width="0.5"/>
<path d="M2969.82 244.666C2981.61 236.102 2960.16 230.389 2912.46 234.208C2871.84 237.436 2812.11 248.728 2748.16 270.583C2737.46 274.266 2726.68 278.236 2715.85 282.556C2623.29 319.567 2537.34 376.706 2450.23 418.719C2415.04 435.739 2379.08 450.622 2342.83 463.55C2206.28 512.05 2064.31 543.12 1917 546.56C1811.62 549.031 1702.82 538.027 1593.06 546.803C1509.19 553.517 1427.2 567.794 1346.87 581.162C1272.82 593.317 1201.48 604.714 1131.6 612.535C986.568 628.767 835.883 640.634 690.007 584.435C552.785 531.586 420.929 451.607 281.566 395.348C143.123 339.71 -0.114883 300.516 -126 298" stroke="#8FAABB" stroke-width="0.5"/>
<path d="M2970.47 234.878C2982.91 230.317 2962.03 228.777 2914.95 235.859C2874.92 241.9 2815.82 255.264 2752.23 277.991C2741.6 281.827 2730.86 285.92 2720.07 290.329C2627.89 328.052 2541.3 383.684 2453.5 424.065C2418.05 440.419 2381.84 454.599 2345.38 466.786C2208.01 512.542 2065.56 540.434 1918.24 541.657C1810.79 542.548 1700.08 530.18 1588.31 538.908C1502.9 545.568 1419.49 560.563 1337.79 575.151C1262.5 588.425 1189.92 601.382 1118.76 610.835C970.961 630.451 817.021 646.217 667.681 590.992C530.847 540.373 399.609 461.712 261.568 405.098C124.538 349.103 -16.7012 307.967 -141 301.579" stroke="#8FAABB" stroke-width="0.5"/>
<path d="M2971.09 223.078C2984.19 222.489 2963.88 225.103 2917.45 235.484C2878.01 244.308 2819.56 259.812 2756.37 283.536C2745.78 287.525 2735.09 291.756 2724.37 296.259C2632.57 334.851 2545.39 389.249 2456.92 428.159C2421.22 443.92 2384.78 457.459 2348.1 468.973C2209.98 512.189 2067.1 536.956 1919.83 536.034C1810.32 535.339 1697.73 521.588 1583.98 530.277C1497.08 536.941 1412.29 552.701 1329.25 568.552C1252.76 583.013 1178.93 597.579 1106.5 608.686C956.01 631.775 798.864 651.464 646.093 596.99C509.708 548.364 379.102 470.711 242.476 413.502C106.876 356.928 -32.3155 313.666 -155 303.406" stroke="#8FAABB" stroke-width="0.5"/>
<path d="M2970.71 213C2984.44 216.402 2964.73 223.145 2918.94 236.858C2880.12 248.469 2822.34 266.112 2759.54 290.802C2749.04 294.959 2738.41 299.313 2727.74 303.925C2636.37 343.4 2548.59 396.543 2459.5 433.977C2423.57 449.156 2386.9 462.038 2350.05 472.863C2211.18 513.532 2067.91 535.167 1920.75 532.098C1809.23 529.785 1694.79 514.681 1579.1 523.36C1490.72 529.997 1404.57 546.537 1320.22 563.666C1242.55 579.314 1167.51 595.477 1093.83 608.237C940.684 634.786 780.411 658.356 624.243 604.714C488.352 558.027 358.421 481.435 223.224 423.621C89.1129 366.486 -47.9699 321.1 -169 306.964" stroke="#8FAABB" stroke-width="0.5"/>
<path d="M2968.3 201C2982.66 208.376 2963.57 219.259 2918.44 236.263C2880.24 250.667 2823.14 270.437 2760.78 296.102C2750.33 300.41 2739.78 304.914 2729.14 309.615C2638.23 349.926 2549.92 401.755 2460.23 437.698C2424.05 452.269 2387.18 464.497 2350.14 474.639C2210.6 512.728 2067 531.153 1919.97 525.999C1806.47 522.039 1690.22 505.609 1572.64 514.27C1482.8 520.875 1395.34 538.166 1309.71 556.576C1230.86 573.384 1154.63 591.144 1079.75 605.563C923.976 635.566 760.645 662.924 601.116 610.188C465.776 565.449 336.56 490.026 202.85 431.652C70.2702 374.004 -64.677 326.529 -184 308.512" stroke="#8FAABB" stroke-width="0.5"/>
<path d="M2966.88 191C2981.88 202.341 2963.36 217.367 2918.92 237.664C2881.32 254.835 2824.93 276.717 2762.98 303.311C2752.61 307.781 2742.11 312.402 2731.54 317.204C2641.1 358.326 2552.22 408.826 2461.93 443.258C2425.53 457.197 2388.44 468.78 2351.24 478.233C2211.02 513.707 2067.09 528.899 1920.18 521.696C1804.73 516.048 1686.68 498.349 1567.16 506.972C1475.9 513.556 1387.11 531.602 1300.18 551.265C1220.19 569.221 1142.8 588.702 1066.68 604.619C908.365 638.356 741.92 669.133 579.033 617.395C444.231 574.597 315.731 500.418 183.477 441.521C52.4434 383.395 -80.3686 333.862 -198 311.994" stroke="#8FAABB" stroke-width="0.5"/>
<path d="M2967.43 180C2983.07 195.28 2965.14 214.369 2921.34 237.899C2884.32 257.786 2828.56 281.723 2766.99 309.212C2756.67 313.819 2746.22 318.561 2735.71 323.438C2645.63 365.274 2556.11 414.352 2465.16 447.185C2428.48 460.479 2391.13 471.363 2353.72 480.125C2212.7 512.928 2068.33 524.821 1921.39 515.623C1803.86 508.276 1683.88 489.383 1562.36 497.964C1469.56 504.513 1379.36 523.24 1291.08 544.121C1209.85 563.195 1131.21 584.196 1053.79 601.704C892.711 638.768 723.084 673.137 556.64 622.584C422.293 581.772 294.357 509.029 163.479 449.76C33.823 391.273 -96.9642 339.802 -213 314.15" stroke="#8FAABB" stroke-width="0.5"/>
<path d="M2966.97 169C2983.26 188.351 2965.9 211.665 2922.76 238.641C2886.34 261.396 2831.26 287.6 2770.09 316.195C2759.85 320.991 2749.46 325.878 2738.99 330.886C2649.35 373.778 2559.25 421.815 2467.67 453.314C2430.75 466.084 2393.18 476.372 2355.59 484.481C2213.85 514.876 2069.12 523.53 1922.24 512.289C1802.75 503.151 1680.89 482.953 1557.43 491.547C1463.17 498.098 1371.62 517.69 1282.02 539.946C1199.61 560.28 1119.76 582.989 1041.1 602.249C877.377 642.933 704.66 681.15 534.78 631.404C400.944 592.218 273.669 520.353 144.222 460.228C16.0727 400.921 -112.62 347.09 -227 317.421" stroke="#8FAABB" stroke-width="0.5"/>
<path d="M2966.49 159C2983.43 182.247 2966.62 209.609 2924.13 239.776C2888.29 265.239 2833.86 293.491 2773.07 322.934C2762.88 327.879 2752.55 332.884 2742.12 337.98C2652.85 381.564 2562.12 428.133 2469.86 458.043C2432.68 470.164 2394.86 479.767 2357.05 487.154C2214.51 514.879 2069.35 520.201 1922.46 507.039C1800.89 496.155 1677.08 474.838 1551.61 483.37C1455.81 489.898 1362.86 510.175 1271.9 533.618C1188.26 555.056 1107.14 579.252 1027.18 600.102C860.725 644.078 684.826 685.733 511.402 637.309C377.995 600.042 251.303 529.713 123.208 469.229C-3.52885 409.605 -130.206 353.869 -243 320.446" stroke="#8FAABB" stroke-width="0.5"/>
<path d="M2965 147C2982.57 174.114 2966.34 205.495 2924.54 238.843C2889.29 266.964 2835.58 297.263 2775.21 327.562C2765.08 332.639 2754.81 337.762 2744.44 342.929C2655.64 387.198 2564.36 432.339 2471.5 460.655C2434.08 472.131 2396.06 481.054 2358.08 487.739C2214.86 512.81 2069.43 514.778 1922.61 499.741C1799.13 487.093 1673.47 464.696 1546.11 473.183C1448.86 479.657 1354.58 500.628 1262.35 525.248C1177.55 547.766 1095.25 573.468 1014.09 595.896C845.024 643.139 666.107 688.144 489.286 641.066C356.449 605.705 230.459 536.92 103.835 476.097C-21.3704 416.145 -145.912 358.522 -257 321.358" stroke="#8FAABB" stroke-width="0.5"/>
<path d="M2962.49 133C2980.69 164.38 2965.04 200.188 2923.92 237.21C2889.28 268.378 2836.24 301.107 2776.28 332.669C2766.22 337.962 2756.01 343.271 2745.69 348.579C2657.31 394.14 2565.45 438.411 2471.98 465.514C2434.32 476.479 2396.07 484.851 2357.9 490.903C2213.96 513.638 2068.25 512.258 1921.43 495.15C1796 480.529 1668.45 456.793 1539.14 465.332C1440.44 471.854 1344.8 493.785 1251.27 519.917C1165.27 543.819 1081.78 571.362 999.378 595.674C827.676 646.831 645.703 695.759 465.419 649.47C333.109 615.512 207.752 547.414 82.5908 485.428C-41.1376 424.352 -163.569 364.079 -273 322.674" stroke="#8FAABB" stroke-width="0.5"/>
<path d="M2960.95 124C2979.8 159.103 2964.72 198.767 2924.28 238.792C2890.24 272.51 2837.91 307.132 2778.38 339.405C2768.39 344.824 2758.24 350.212 2747.97 355.601C2660.06 401.648 2567.65 444.322 2473.58 469.731C2435.69 480.012 2397.22 487.659 2358.89 493.003C2214.29 512.993 2068.31 508.266 1921.56 489.39C1794.22 473.013 1664.82 448.356 1533.62 456.801C1433.47 463.258 1336.53 485.777 1241.69 512.993C1154.57 537.89 1069.88 566.806 986.256 592.576C811.958 646.781 627.002 698.743 443.312 654.112C311.556 622.095 186.915 555.878 63.2241 493.785C-58.9744 432.641 -179.258 370.729 -287 325.782" stroke="#8FAABB" stroke-width="0.5"/>
<path d="M2960.41 115C2979.89 154.279 2965.38 198.278 2925.61 241.824C2892.15 278.5 2840.51 315.449 2781.34 348.857C2771.42 354.471 2761.34 360.009 2751.11 365.516C2663.6 412.663 2570.59 454.257 2475.88 478.314C2437.72 488.043 2399.03 495.079 2360.49 499.769C2215.14 517.291 2068.84 509.12 1922.04 488.255C1792.75 469.902 1661.38 444.044 1528.19 452.517C1426.55 458.977 1328.23 482.384 1232.06 510.996C1143.72 537.202 1057.81 567.872 972.922 595.44C795.938 653.359 607.888 708.934 420.666 665.449C289.398 634.961 165.368 569.793 43.0867 506.82C-77.6567 444.815 -195.882 380.48 -302 331.427" stroke="#8FAABB" stroke-width="0.5"/>
<path d="M2959.84 102C2979.98 145.239 2966.01 193.377 2926.91 240.215C2894 279.658 2843.03 318.722 2784.25 353.083C2774.38 358.845 2764.35 364.517 2754.17 370.128C2667.03 418.1 2573.39 458.39 2478 480.954C2439.58 490.074 2400.65 496.456 2361.89 500.449C2215.73 515.391 2069.09 503.791 1922.17 481.09C1790.89 460.794 1657.51 433.904 1522.33 442.358C1419.15 448.801 1319.42 472.954 1221.89 502.838C1132.32 530.197 1045.15 562.425 958.973 591.644C779.218 653.001 588.014 711.832 397.217 669.804C266.384 640.993 142.942 577.277 22.0193 513.757C-97.2891 451.251 -213.49 384.843 -318 331.925" stroke="#8FAABB" stroke-width="0.5"/>
<path d="M2959.26 92C2980.03 139.048 2966.63 191.098 2928.22 241.069C2895.89 283.131 2845.62 324.168 2787.23 359.36C2777.44 365.265 2767.46 371.05 2757.34 376.73C2670.66 425.36 2576.42 464.228 2480.41 485.213C2441.75 493.695 2402.6 499.39 2363.65 502.689C2216.79 515.027 2069.9 500.037 1922.96 475.572C1789.77 453.411 1654.46 425.631 1517.33 434.007C1412.69 440.41 1311.61 465.237 1212.77 496.271C1122.03 524.684 1033.66 558.384 946.234 589.147C763.849 653.686 569.608 715.498 375.338 675.139C244.989 648.052 122.258 586.014 2.78491 522.183C-115.059 459.392 -229.148 391.132 -332 334.578" stroke="#8FAABB" stroke-width="0.5"/>
<path d="M2958.68 79C2980.09 130.151 2967.14 186.424 2929.49 239.901C2897.65 284.799 2848.14 328.155 2790.14 364.396C2780.4 370.484 2770.47 376.421 2760.39 382.222C2674.08 431.832 2579.22 469.508 2482.54 489.071C2443.6 496.972 2404.2 502.033 2365.06 504.661C2217.39 514.451 2070.18 495.975 1923.1 469.614C1787.95 445.413 1650.6 416.559 1511.45 424.943C1405.29 431.349 1302.8 456.985 1202.58 489.389C1110.61 519.043 1020.99 554.438 932.271 586.948C747.129 655.094 549.718 720.219 351.87 681.319C221.958 655.774 99.833 595.045 -18.2632 530.449C-134.684 466.955 -246.76 396.422 -348 335.814" stroke="#8FAABB" stroke-width="0.5"/>
<path d="M2959.06 70C2981.11 124.912 2968.73 185.092 2931.77 241.66C2900.54 289.153 2851.73 334.465 2794.14 371.545C2784.47 377.775 2774.6 383.809 2764.59 389.678C2678.75 439.941 2583.33 476.193 2486.07 494.191C2446.9 501.475 2407.27 505.869 2367.97 507.795C2219.63 514.988 2072.25 493.138 1925.16 465.072C1788.18 438.962 1648.9 409.256 1507.87 417.593C1400.27 423.944 1296.46 450.249 1194.98 483.792C1101.85 514.507 1011.05 551.331 921.136 585.371C733.392 656.686 533.022 724.631 331.762 687.521C202.375 663.639 80.9827 604.618 -35.6433 539.728C-150.52 475.937 -260.449 403.583 -360 339.356" stroke="#8FAABB" stroke-width="0.5"/>
<path d="M2957.42 57C2980.11 115.939 2968.31 180.316 2932.01 240.204C2901.34 290.527 2853.19 338.004 2795.98 376.066C2786.38 382.468 2776.56 388.643 2766.59 394.608C2681.11 445.775 2585.08 480.78 2487.13 497.303C2447.71 503.991 2407.84 507.742 2368.32 508.992C2219.18 513.631 2071.52 488.266 1924.26 458.397C1785.37 430.216 1644 399.564 1500.96 407.878C1391.83 414.219 1286.62 441.317 1183.78 476.141C1089.42 508.058 997.351 546.512 906.13 582.225C715.66 657.04 512.122 728.059 307.301 692.602C178.294 670.265 57.5409 612.711 -57.7039 547.175C-171.153 482.798 -279.064 408.285 -377 340.143" stroke="#8FAABB" stroke-width="0.5"/>
<path d="M2953.77 46C2977.09 108.855 2965.86 177.324 2930.28 240.45C2900.25 293.537 2852.84 343.071 2796.11 382.069C2786.57 388.632 2776.84 394.938 2766.92 400.989C2682 452.977 2585.49 486.662 2487.05 501.699C2447.44 507.779 2407.39 510.88 2367.73 511.437C2218.07 513.529 2070.41 484.69 1923.22 453.067C1782.65 422.859 1639.48 391.311 1494.68 399.604C1384.21 405.926 1277.77 433.741 1173.76 469.82C1078.34 502.873 985.173 542.879 892.839 580.237C699.942 658.415 493.618 732.317 285.576 698.647C157.209 677.876 37.3265 621.87 -76.3469 555.839C-188.182 490.967 -293.853 414.415 -390 342.454" stroke="#8FAABB" stroke-width="0.5"/>
<path d="M2953.11 33C2977.05 100.072 2966.4 172.945 2931.5 239.593C2902.04 295.653 2855.33 347.497 2799.01 387.605C2789.55 394.342 2779.87 400.807 2770 406.986C2685.52 459.994 2588.44 492.533 2489.38 506.144C2449.53 511.627 2409.27 514.089 2369.43 513.969C2219.04 513.485 2071.24 481.052 1923.93 447.531C1781.54 415.128 1636.35 382.589 1489.62 390.883C1377.7 397.197 1269.92 425.899 1164.6 463.363C1068.01 497.714 973.658 539.453 880.072 578.593C684.553 660.53 475.172 737.556 263.712 705.607C135.772 686.286 16.631 631.631 -95.5935 564.786C-205.935 499.134 -309.495 420.204 -404 344.129" stroke="#8FAABB" stroke-width="0.5"/>
<path d="M2953.39 23C2978.02 93.9943 2967.91 170.935 2933.64 240.812C2904.74 299.612 2858.66 353.537 2802.65 394.573C2793.24 401.47 2783.61 408.05 2773.79 414.329C2689.6 468.133 2591.8 499.359 2491.98 511.463C2451.82 516.338 2411.28 518.149 2371.21 517.349C2219.89 514.3 2071.73 478.381 1924.07 443.125C1779.67 408.654 1632.24 375.27 1483.37 383.525C1369.82 389.834 1260.53 419.249 1153.75 457.961C1055.84 493.443 960.149 536.743 865.203 577.507C666.74 662.794 454.004 742.557 238.779 712.553C111.092 694.744 -7.45173 641.71 -118.421 574.353C-227.415 508.233 -329.045 427.293 -422 347.409" stroke="#8FAABB" stroke-width="0.5"/>
<path d="M2952.68 14C2977.94 88.9968 2968.41 170.124 2934.83 243.324C2906.52 304.943 2861.14 361.005 2805.57 403.026C2796.22 410.092 2786.66 416.811 2776.89 423.183C2693.16 477.857 2594.83 507.813 2494.43 518.443C2454.03 522.716 2413.28 523.878 2373.03 522.399C2221.05 516.767 2072.82 477.313 1925.06 440.29C1778.91 403.675 1629.49 369.446 1478.73 377.675C1363.76 383.956 1253.17 414.154 1145.12 454.151C1046.05 490.811 949.191 535.716 853.021 578.159C652.012 666.926 436.268 749.473 217.705 721.434C90.4696 705.097 -27.2953 653.624 -136.75 585.663C-244.245 518.971 -343.717 435.896 -435 352.112" stroke="#8FAABB" stroke-width="0.5"/>
<path d="M2950.97 1C2998.64 146.333 2928.1 312.994 2807.45 406.905C2686.81 500.832 2526.48 530.879 2373.83 522.689C2221.19 514.513 2072.91 471.57 1925.02 432.834C1777.15 394.099 1625.74 359.09 1473.09 367.295C1249.98 379.287 1043.46 481.887 839.872 573.989C636.287 666.105 417.523 751.238 195.609 725.264C-55.563 695.851 -268.101 529.16 -449 352.332" stroke="#8FAABB" stroke-width="0.5"/>
</g>
</svg>
